#tb 0: 1/600
0,          0,          0,        1,    21600, 0x7f9389e3
0,         40,         40,        1,    21600, 0xcebb8896
0,         80,         80,        1,    21600, 0xef51860a
0,        120,        120,        1,    21600, 0x88d97e7d
0,        160,        160,        1,    21600, 0xc7757c88
0,        200,        200,        1,    21600, 0x2f537ade
0,        240,        240,        1,    21600, 0xd50a7eff
0,        280,        280,        1,    21600, 0xdcfb7fc6
0,        320,        320,        1,    21600, 0x0d608299
0,        360,        360,        1,    21600, 0x97ca81b4
0,        400,        400,        1,    21600, 0x791f80e7
0,        440,        440,        1,    21600, 0x96ae7d33
0,        480,        480,        1,    21600, 0x4d7474a8
0,        520,        520,        1,    21600, 0x2ae76f37
0,        560,        560,        1,    21600, 0x7da76265
0,        600,        600,        1,    21600, 0x93ae3eb6
0,        640,        640,        1,    21600, 0xebfd3868
0,        680,        680,        1,    21600, 0x54f82ffa
0,        720,        720,        1,    21600, 0x8d5b2ad0
0,        760,        760,        1,    21600, 0xe67128e6
0,        800,        800,        1,    21600, 0xb7bf613e
0,        840,        840,        1,    21600, 0xefd0f51b
0,        880,        880,        1,    21600, 0x31b7da59
0,        920,        920,        1,    21600, 0x7a84a8f7
0,        960,        960,        1,    21600, 0x0351ad27
0,       1000,       1000,        1,    21600, 0xed6f434d
0,       1040,       1040,        1,    21600, 0x0e771127
0,       1080,       1080,        1,    21600, 0x37bf0b95
0,       1120,       1120,        1,    21600, 0x30e10a77
0,       1160,       1160,        1,    21600, 0x1a48288a
0,       1200,       1200,        1,    21600, 0xf43c6770
0,       1240,       1240,        1,    21600, 0x3c43ae68
0,       1280,       1280,        1,    21600, 0x04dc0949
0,       1320,       1320,        1,    21600, 0x7920758d
0,       1360,       1360,        1,    21600, 0x6c12bab5
0,       1400,       1400,        1,    21600, 0x1ac23706
0,       1440,       1440,        1,    21600, 0x7a95cb5f
0,       1480,       1480,        1,    21600, 0xf1bfbb46
0,       1520,       1520,        1,    21600, 0x773d1d0c
0,       1560,       1560,        1,    21600, 0x2e7bea65
0,       1600,       1600,        1,    21600, 0xdb1a086f
0,       1640,       1640,        1,    21600, 0x5b36b78d
0,       1680,       1680,        1,    21600, 0x7b533ca6
0,       1720,       1720,        1,    21600, 0x65d75105
0,       1760,       1760,        1,    21600, 0xfe6f6207
0,       1800,       1800,        1,    21600, 0x44c4ce57
0,       1840,       1840,        1,    21600, 0x220f3dae
0,       1880,       1880,        1,    21600, 0xb4d20ffb
0,       1920,       1920,        1,    21600, 0x8907ad72
0,       1960,       1960,        1,    21600, 0xc6418998
0,       2000,       2000,        1,    21600, 0x395b6670
0,       2040,       2040,        1,    21600, 0x83495b88
0,       2080,       2080,        1,    21600, 0x8920d683
0,       2120,       2120,        1,    21600, 0xd7fc64ea
0,       2160,       2160,        1,    21600, 0x21a3b222
0,       2200,       2200,        1,    21600, 0xc11f2dbd
0,       2240,       2240,        1,    21600, 0xd1d5495d
0,       2280,       2280,        1,    21600, 0x70f2de20
0,       2320,       2320,        1,    21600, 0x10adc9a9
0,       2360,       2360,        1,    21600, 0xf713c0ec
0,       2400,       2400,        1,    21600, 0xa346b3fe
0,       2440,       2440,        1,    21600, 0x7945c29b
0,       2480,       2480,        1,    21600, 0xb07ceb91
0,       2520,       2520,        1,    21600, 0xe1eaf9ef
0,       2560,       2560,        1,    21600, 0x6fa915c7
0,       2600,       2600,        1,    21600, 0x61952055
0,       2640,       2640,        1,    21600, 0x4bca2382
0,       2680,       2680,        1,    21600, 0x36161fe2
0,       2720,       2720,        1,    21600, 0xf93a28f7
0,       2760,       2760,        1,    21600, 0xa02a3d47
0,       2800,       2800,        1,    21600, 0x925b3609
0,       2840,       2840,        1,    21600, 0x5b6941db
0,       2880,       2880,        1,    21600, 0x33154a91
0,       2920,       2920,        1,    21600, 0xb1d75c50
0,       2960,       2960,        1,    21600, 0x1cb369bd
0,       3000,       3000,        1,    21600, 0x3be4eff2
0,       3040,       3040,        1,    21600, 0xbb89c301
0,       3080,       3080,        1,    21600, 0xc7630d85
0,       3120,       3120,        1,    21600, 0xf7441c67
0,       3160,       3160,        1,    21600, 0xc23611ef
0,       3200,       3200,        1,    21600, 0x840efb21
0,       3240,       3240,        1,    21600, 0x7d470a0f
0,       3280,       3280,        1,    21600, 0xfe093210
0,       3320,       3320,        1,    21600, 0x0f3ea098
0,       3360,       3360,        1,    21600, 0xcd72286f
0,       3400,       3400,        1,    21600, 0x826f8030
0,       3440,       3440,        1,    21600, 0xcda3ace8
0,       3480,       3480,        1,    21600, 0x39cb4cd0
0,       3520,       3520,        1,    21600, 0xa86a60ac
0,       3560,       3560,        1,    21600, 0xcd32ed8e
0,       3600,       3600,        1,    21600, 0x769b285d
0,       3640,       3640,        1,    21600, 0x10234cd0
0,       3680,       3680,        1,    21600, 0x951036b8
0,       3720,       3720,        1,    21600, 0xaef248fa
0,       3760,       3760,        1,    21600, 0x74e36e84
0,       3800,       3800,        1,    21600, 0x3908531b
0,       3840,       3840,        1,    21600, 0x342f2a9d
0,       3880,       3880,        1,    21600, 0x291d58f3
0,       3920,       3920,        1,    21600, 0xcf24b1e5
0,       3960,       3960,        1,    21600, 0x3e7c7959
0,       4000,       4000,        1,    21600, 0x6517e573
0,       4040,       4040,        1,    21600, 0x304cc6db
0,       4080,       4080,        1,    21600, 0x272895e4
0,       4120,       4120,        1,    21600, 0x52325837
0,       4160,       4160,        1,    21600, 0xd01344bd
0,       4200,       4200,        1,    21600, 0xd25a370b
0,       4240,       4240,        1,    21600, 0x274e0ae9
0,       4280,       4280,        1,    21600, 0x6f66138f
0,       4320,       4320,        1,    21600, 0xd35a0f60
0,       4360,       4360,        1,    21600, 0xe0610863
0,       4400,       4400,        1,    21600, 0x920b05fb
0,       4440,       4440,        1,    21600, 0x5befe39d
0,       4480,       4480,        1,    21600, 0xd167bd58
0,       4520,       4520,        1,    21600, 0x653ac504
0,       4560,       4560,        1,    21600, 0x8372c6d7
0,       4600,       4600,        1,    21600, 0x0302c276
0,       4640,       4640,        1,    21600, 0xa176b694
0,       4680,       4680,        1,    21600, 0x4c2e935a
0,       4720,       4720,        1,    21600, 0xf7ea844e
0,       4760,       4760,        1,    21600, 0x76d6c07b
0,       4800,       4800,        1,    21600, 0x0a14d610
0,       4840,       4840,        1,    21600, 0x0ec9f3f3
0,       4880,       4880,        1,    21600, 0xdc90f6ea
0,       4920,       4920,        1,    21600, 0xc841f9ef
0,       4960,       4960,        1,    21600, 0x7ab5f9b9
0,       5000,       5000,        1,    21600, 0xda40f3c2
0,       5040,       5040,        1,    21600, 0x0040fb72
0,       5080,       5080,        1,    21600, 0x705b0786
0,       5120,       5120,        1,    21600, 0x26d5198d
0,       5160,       5160,        1,    21600, 0x6f5153ad
0,       5200,       5200,        1,    21600, 0x9f26624b
0,       5240,       5240,        1,    21600, 0x0d3ea7af
0,       5280,       5280,        1,    21600, 0xb957ca79
0,       5320,       5320,        1,    21600, 0x03a60612
0,       5360,       5360,        1,    21600, 0x3ddc4ff1
0,       5400,       5400,        1,    21600, 0x8fe5697f
0,       5440,       5440,        1,    21600, 0x3d199b09
0,       5480,       5480,        1,    21600, 0x97e2b504
0,       5520,       5520,        1,    21600, 0x7563f784
0,       5560,       5560,        1,    21600, 0x9a473879
0,       5600,       5600,        1,    21600, 0x2e2054e5
0,       5640,       5640,        1,    21600, 0x06b3658b
0,       5680,       5680,        1,    21600, 0xa37ee249
0,       5720,       5720,        1,    21600, 0xa527efa1
0,       5760,       5760,        1,    21600, 0x12791532
0,       5800,       5800,        1,    21600, 0xc5350145
0,       5840,       5840,        1,    21600, 0xcd44f1ac
0,       5880,       5880,        1,    21600, 0xe610edfb
0,       5920,       5920,        1,    21600, 0x5642f672
0,       5960,       5960,        1,    21600, 0xf2bc3e5b
